<?xml version="1.0" standalone="no"?>
<!DOCTYPE svg PUBLIC "-//W3C//DTD SVG 20010904//EN"
 "http://www.w3.org/TR/2001/REC-SVG-20010904/DTD/svg10.dtd">
<svg version="1.0" xmlns="http://www.w3.org/2000/svg"
 width="1080.000000pt" height="587.000000pt" viewBox="0 0 1080.000000 587.000000"
 preserveAspectRatio="xMidYMid meet">

<g transform="translate(0.000000,587.000000) scale(0.100000,-0.100000)"
fill="#000000" stroke="none">
<path d="M2589 4393 c-9 -2 -26 -21 -37 -42 -21 -37 -22 -52 -22 -265 l0 -226
-240 0 c-240 0 -241 0 -265 -24 -14 -14 -26 -41 -30 -67 -3 -24 -5 -217 -3
-427 l3 -384 24 -19 c21 -18 42 -19 267 -19 l244 0 0 -238 c0 -219 2 -240 18
-255 17 -15 61 -17 433 -17 l414 0 -65 38 c-76 44 -210 173 -267 257 -84 124
-148 283 -178 441 -26 132 -24 369 3 499 56 265 186 490 367 633 44 35 91 72
103 83 13 10 29 19 35 19 7 0 6 4 -3 10 -15 9 -767 13 -801 3z"/>
<path d="M3415 4315 c-309 -186 -495 -539 -495 -940 0 -398 178 -738 492 -939
31 -20 60 -36 65 -36 4 0 -13 21 -38 48 -154 159 -263 448 -300 797 -37 355
95 837 288 1046 31 32 53 59 51 59 -2 0 -30 -16 -63 -35z"/>
<path d="M4053 4315 c-6 -11 -16 -37 -22 -57 -11 -32 -19 -39 -62 -53 -27 -9
-49 -20 -49 -24 0 -4 22 -15 49 -25 45 -16 52 -22 67 -64 10 -26 20 -50 24
-54 3 -5 14 17 25 47 12 36 25 57 38 61 11 4 36 13 56 21 l36 15 -53 20 c-53
20 -75 46 -92 108 -6 24 -7 24 -17 5z"/>
<path d="M3455 4076 c-61 -28 -115 -110 -115 -175 0 -42 44 -91 81 -91 92 0
179 124 150 213 -7 19 -17 40 -24 45 -22 19 -62 22 -92 8z"/>
<path d="M3885 3881 c-55 -21 -167 -69 -250 -106 -231 -102 -291 -112 -339
-54 -13 16 -27 48 -32 71 l-7 43 -9 -30 c-42 -148 -65 -464 -45 -609 l9 -60
28 71 c80 207 293 419 638 635 69 43 121 78 116 78 -5 0 -54 -18 -109 -39z"/>
<path d="M3980 3446 c0 -5 128 -462 167 -596 9 -30 24 -72 35 -93 18 -36 21
-38 60 -35 l41 3 73 273 c84 318 82 312 94 292 4 -8 40 -136 80 -285 39 -148
75 -274 79 -278 5 -5 28 -7 51 -5 l43 3 104 360 c56 198 103 361 103 363 0 2
-17 2 -37 0 l-37 -3 -86 -295 c-47 -162 -88 -302 -91 -310 -3 -8 -43 118 -88
280 -45 162 -85 303 -87 313 -4 12 -16 17 -39 17 -40 0 -24 41 -135 -357 -41
-145 -76 -260 -79 -258 -3 3 -44 142 -92 308 l-86 302 -37 3 c-20 2 -36 1 -36
-2z"/>
<path d="M5682 3083 l3 -368 35 0 c33 0 35 2 38 38 2 20 5 37 8 37 3 0 17 -11
32 -25 50 -46 91 -60 177 -59 66 0 89 5 130 26 102 53 150 136 149 258 -1 159
-103 268 -260 278 -83 5 -133 -8 -186 -49 -20 -16 -39 -29 -42 -29 -3 0 -6 59
-6 130 l0 130 -40 0 -40 0 2 -367z m374 107 c35 -14 84 -61 105 -103 17 -32
20 -54 17 -112 -4 -82 -30 -132 -94 -175 -51 -34 -145 -40 -200 -12 -57 30
-100 80 -120 140 -15 46 -15 61 -4 109 16 73 85 146 151 161 44 10 105 7 145
-8z"/>
<path d="M6410 3086 l0 -366 135 0 c73 0 158 5 187 11 113 24 207 92 256 184
24 46 27 60 27 165 0 105 -2 120 -27 170 -35 71 -75 109 -167 156 l-74 39
-168 3 -169 4 0 -366z m350 275 c75 -28 124 -71 157 -139 24 -48 28 -69 27
-137 -1 -123 -51 -213 -145 -261 -55 -27 -174 -47 -259 -42 l-55 3 -3 290 c-1
159 0 296 3 304 8 22 203 9 275 -18z"/>
<path d="M5139 3238 c-110 -58 -165 -174 -140 -297 45 -222 310 -306 470 -149
33 32 71 86 71 101 0 4 -18 7 -40 7 -22 0 -40 -4 -40 -9 0 -5 -12 -24 -26 -41
-65 -76 -178 -95 -262 -43 -66 41 -114 117 -98 158 5 13 41 15 247 15 l241 0
-7 48 c-9 63 -59 155 -103 189 -51 38 -97 52 -179 53 -61 0 -80 -4 -134 -32z
m241 -58 c39 -20 100 -97 100 -127 0 -10 -43 -13 -206 -13 l-205 0 6 23 c37
124 182 180 305 117z"/>
<path d="M7317 3256 c-115 -42 -184 -154 -175 -285 12 -162 141 -271 307 -259
135 10 224 91 249 228 24 130 -36 252 -153 306 -58 28 -165 32 -228 10z m166
-57 c85 -23 147 -111 147 -209 0 -139 -112 -234 -245 -209 -59 11 -74 20 -118
68 -78 87 -75 213 8 296 58 59 127 77 208 54z"/>
<path d="M8004 3258 c-106 -35 -188 -150 -188 -261 1 -273 363 -393 524 -173
17 22 30 44 30 48 0 4 -16 8 -36 8 -28 0 -46 -9 -85 -44 -58 -52 -114 -70
-178 -55 -82 18 -136 62 -165 131 -39 92 0 209 88 263 41 25 60 30 110 30 72
-1 133 -28 166 -75 18 -25 28 -30 61 -30 51 0 50 14 -2 74 -61 69 -107 89
-209 92 -47 2 -99 -2 -116 -8z"/>
<path d="M8564 3261 c-32 -14 -72 -68 -80 -106 -14 -79 20 -131 113 -170 91
-38 120 -60 128 -95 9 -41 -13 -82 -57 -103 -33 -16 -39 -17 -73 -3 -27 12
-40 26 -52 56 -14 36 -20 40 -50 40 -41 0 -43 -16 -10 -80 30 -61 91 -93 165
-87 86 6 141 61 150 146 8 92 -18 126 -138 176 -85 35 -100 50 -100 96 0 64
66 99 118 63 13 -9 27 -27 32 -40 8 -19 17 -24 45 -24 39 0 41 6 21 53 -25 58
-59 81 -129 84 -34 2 -71 -1 -83 -6z"/>
</g>
</svg>
